<svg width="133" height="133" viewBox="0 0 133 133" fill="none" xmlns="http://www.w3.org/2000/svg">
<g clip-path="url(#clip0_30_61)">
<path fill-rule="evenodd" clip-rule="evenodd" d="M91.4375 124.688C100.256 124.688 108.713 121.184 114.949 114.949C121.184 108.713 124.688 100.256 124.688 91.4375C124.688 82.6191 121.184 74.1618 114.949 67.9262C108.713 61.6906 100.256 58.1875 91.4375 58.1875C82.6191 58.1875 74.1618 61.6906 67.9262 67.9262C61.6906 74.1618 58.1875 82.6191 58.1875 91.4375C58.1875 100.256 61.6906 108.713 67.9262 114.949C74.1618 121.184 82.6191 124.688 91.4375 124.688ZM133 91.4375C133 102.461 128.621 113.032 120.827 120.827C113.032 128.621 102.461 133 91.4375 133C80.4144 133 69.8429 128.621 62.0484 120.827C54.2539 113.032 49.875 102.461 49.875 91.4375C49.875 80.4144 54.2539 69.8429 62.0484 62.0484C69.8429 54.2539 80.4144 49.875 91.4375 49.875C102.461 49.875 113.032 54.2539 120.827 62.0484C128.621 69.8429 133 80.4144 133 91.4375Z" fill="#FEFEFE"/>
<path d="M78.4534 99.2845C78.8441 104.239 82.7593 108.096 89.7833 108.561V112.219H92.9005V108.536C100.174 108.029 104.422 104.139 104.422 98.5031C104.422 93.366 101.18 90.7226 95.361 89.3594L92.9005 88.7775V78.8025C96.026 79.1599 98.0044 80.864 98.4782 83.2248H103.948C103.557 78.4451 99.4591 74.7128 92.9005 74.3054V70.6562H89.7833V74.3969C83.5739 75.0037 79.3511 78.736 79.3511 84.0227C79.3511 88.6944 82.4933 91.6702 87.7218 92.8839L89.7833 93.3909V103.964C86.5913 103.482 84.4716 101.72 83.9978 99.2845H78.4451H78.4534ZM89.7584 88.0294C86.6911 87.3228 85.0286 85.8681 85.0286 83.6902C85.0286 81.2464 86.8241 79.4176 89.7833 78.8856V88.0294H89.7584ZM93.3494 94.2305C97.0817 95.095 98.7941 96.4915 98.7941 98.9603C98.7941 101.778 96.6578 103.707 92.9005 104.064V94.1308L93.3494 94.2305Z" fill="#FEFEFE"/>
<path d="M8.3125 0C6.10789 0 3.99357 0.875779 2.43467 2.43467C0.875779 3.99357 0 6.10789 0 8.3125L0 74.8125C0 77.0171 0.875779 79.1314 2.43467 80.6903C3.99357 82.2492 6.10789 83.125 8.3125 83.125H42.2524C42.7346 80.2655 43.4578 77.4891 44.3971 74.8125H24.9375C24.9375 70.4033 23.1859 66.1746 20.0682 63.0569C16.9504 59.9391 12.7217 58.1875 8.3125 58.1875V24.9375C12.7217 24.9375 16.9504 23.1859 20.0682 20.0682C23.1859 16.9504 24.9375 12.7217 24.9375 8.3125H108.062C108.062 12.7217 109.814 16.9504 112.932 20.0682C116.05 23.1859 120.278 24.9375 124.688 24.9375V54.264C127.846 57.0902 130.648 60.3155 133 63.8566V8.3125C133 6.10789 132.124 3.99357 130.565 2.43467C129.006 0.875779 126.892 0 124.688 0L8.3125 0Z" fill="#FEFEFE"/>
<path d="M83.1084 42.2524L83.125 41.5625C83.1233 38.6996 82.3823 35.8857 80.9738 33.3932C79.5653 30.9008 77.5371 28.8143 75.0855 27.3358C72.6339 25.8574 69.842 25.037 66.9803 24.9543C64.1186 24.8716 61.2841 25.5293 58.7512 26.8637C56.2183 28.1981 54.0729 30.1639 52.5228 32.5709C50.9727 34.9778 50.0704 37.7442 49.9033 40.6023C49.7363 43.4603 50.3101 46.313 51.5692 48.8841C52.8283 51.4553 54.7301 53.6577 57.0903 55.2781C64.2702 48.4392 73.3309 43.9031 83.1084 42.2524Z" fill="#FEFEFE"/>
</g>
<defs>
<clipPath id="clip0_30_61">
<rect width="133" height="133" fill="white"/>
</clipPath>
</defs>
</svg>
